<svg width="27" height="34" viewBox="0 0 27 34" fill="none" xmlns="http://www.w3.org/2000/svg">
<path d="M18.0954 0.00225733C18.2984 0.189433 18.5114 0.367588 18.702 0.566039C21.3212 3.30827 23.9394 6.05201 26.5564 8.79726C26.7018 8.93975 26.8162 9.11076 26.8924 9.29955C26.9687 9.48834 27.0051 9.69084 26.9994 9.89437C26.9904 16.3696 26.9882 22.8448 26.9927 29.32C26.9927 31.6146 25.6094 33.3996 23.4459 33.8901C23.0992 33.9639 22.7453 33.999 22.3907 33.9949C16.4585 34.0017 10.5266 34.0017 4.59517 33.9949C1.95712 33.9949 0.00112737 32.0285 0 29.3843C0 21.1155 0 12.8441 0 4.57002C0 2.36451 1.26491 0.688942 3.38211 0.0710371C3.43078 0.0516758 3.47758 0.0278972 3.52191 0L18.0954 0.00225733ZM16.9534 1.60566C16.8136 1.59889 16.7054 1.58874 16.5983 1.58874C12.6187 1.58874 8.63867 1.58874 4.6583 1.58874C2.85451 1.58874 1.6516 2.78734 1.6516 4.58694C1.6516 12.8347 1.6516 21.0832 1.6516 29.3325C1.6516 31.1512 2.85225 32.3464 4.67746 32.3476C10.5533 32.3476 16.4296 32.3476 22.3062 32.3476C24.1438 32.3476 25.3501 31.1444 25.3501 29.3031C25.3501 23.1158 25.3501 16.9292 25.3501 10.7434V10.3781C23.7796 10.3781 22.2611 10.3781 20.7436 10.3781C18.4889 10.3781 16.9647 8.85476 16.9602 6.60527C16.9602 5.06389 16.9602 3.52251 16.9602 1.98226L16.9534 1.60566ZM24.2092 8.73411L18.6343 2.88318C18.618 2.94772 18.606 3.01326 18.5982 3.07938C18.5982 4.29827 18.5734 5.51943 18.5982 6.73832C18.6231 7.95722 19.4303 8.7172 20.6636 8.73298C21.3953 8.74201 22.1292 8.73298 22.8586 8.73298L24.2092 8.73411Z" fill="#007EF2"/>
<path d="M12.6536 20.9524V20.5961C12.6536 17.8148 12.6536 15.0335 12.6536 12.2522C12.6536 11.9229 12.7145 11.6365 12.9918 11.4313C13.1001 11.3487 13.2276 11.295 13.3623 11.2752C13.497 11.2554 13.6345 11.2702 13.7619 11.3181C13.8894 11.366 14.0026 11.4454 14.0909 11.5491C14.1792 11.6527 14.2398 11.7771 14.2669 11.9105C14.2951 12.0743 14.3064 12.2405 14.3007 12.4066C14.3007 15.1226 14.3007 17.8392 14.3007 20.5567V20.9502L14.4349 21.0629C14.4762 20.952 14.5319 20.847 14.6006 20.7506C15.5852 19.6817 16.5724 18.6165 17.5622 17.5551C17.7978 17.3014 18.0594 17.1198 18.4348 17.192C18.5715 17.2139 18.7004 17.2705 18.809 17.3565C18.9176 17.4425 19.0022 17.555 19.0549 17.6831C19.1075 17.8113 19.1263 17.9508 19.1095 18.0883C19.0927 18.2258 19.0409 18.3567 18.959 18.4684C18.8988 18.548 18.8333 18.6233 18.7628 18.6939C17.2439 20.3251 15.7246 21.9556 14.2049 23.5853C13.719 24.1051 13.2579 24.1186 12.7844 23.6112C11.2301 21.9477 9.6796 20.2834 8.13285 18.6184C7.88144 18.35 7.78449 18.0478 7.90061 17.7051C7.94951 17.556 8.04168 17.425 8.16537 17.3286C8.28906 17.2322 8.43865 17.1748 8.59507 17.1638C8.91186 17.1244 9.14298 17.2879 9.34703 17.5021C10.3504 18.5838 11.3545 19.6636 12.3594 20.7416C12.4338 20.8228 12.4969 20.913 12.5657 20.9987L12.6536 20.9524Z" fill="#007EF2"/>
<path d="M13.498 28.3267C11.2914 28.3267 9.08548 28.3267 6.88034 28.3267C6.29185 28.3267 5.91192 27.9986 5.90742 27.5081C5.90937 27.3071 5.98359 27.1136 6.11649 26.9629C6.24938 26.8121 6.43209 26.7143 6.63119 26.6872C6.74368 26.6782 6.8566 26.6755 6.9694 26.6793H20.039C20.1934 26.6716 20.348 26.6845 20.499 26.7177C20.6806 26.7666 20.8396 26.8772 20.9487 27.0305C21.0578 27.1838 21.1101 27.3703 21.0968 27.5579C21.0835 27.7456 21.0053 27.9228 20.8756 28.0592C20.746 28.1955 20.573 28.2825 20.3862 28.3053C20.2544 28.3228 20.1213 28.3296 19.9883 28.3256L13.498 28.3267Z" fill="#007EF2"/>
</svg>
